<svg id="retail" xmlns="http://www.w3.org/2000/svg" viewBox="0 0 110 110"><defs><style>.cls-1,.cls-2{fill:none;stroke-linejoin:round;stroke-width:3px;}.cls-1{stroke:#50575d;}.cls-2{stroke:#e7343f;}</style></defs><line class="cls-1" x1="32.66" y1="98.62" x2="94.36" y2="98.62"/><path class="cls-1" d="M13.51,105V85.85A8.51,8.51,0,0,1,22,77.34h8.51L41.17,90.11H56.06s1.23,8.51-8.51,8.51H34.79l-8.51-8.51"/><line class="cls-1" x1="32.66" y1="94.36" x2="32.66" y2="105"/><path class="cls-1" d="M25.21,71a9.32,9.32,0,0,0,9.58-9.12v-3a9.32,9.32,0,0,0-9.58-9.12,9.32,9.32,0,0,0-9.57,9.12v3A9.32,9.32,0,0,0,25.21,71Z"/><polyline class="cls-2" points="51.38 83.72 58.19 66.7 96.49 66.7 85.85 92.23 60.32 92.23"/><path class="cls-1" d="M85.85,5H26.28A4.26,4.26,0,0,0,22,9.26V36.91a4.26,4.26,0,0,0,4.26,4.26H61L75.81,56.53a2.13,2.13,0,0,0,3.66-1.47V41.17h6.38a4.26,4.26,0,0,0,4.26-4.26V9.26A4.26,4.26,0,0,0,85.85,5Z"/><line class="cls-1" x1="34.79" y1="26.28" x2="60.32" y2="26.28"/><line class="cls-1" x1="34.79" y1="17.77" x2="77.34" y2="17.77"/></svg>