<svg id="retail" xmlns="http://www.w3.org/2000/svg" viewBox="0 0 110 110"><defs><style>.cls-1,.cls-2{fill:none;stroke-linejoin:round;stroke-width:3px;}.cls-1{stroke:#50575d;}.cls-2{stroke:#e7343f;stroke-linecap:round;}</style></defs><polyline class="cls-1" points="7.19 59.34 37.62 72.37 68.04 59.34"/><line class="cls-1" x1="21.93" y1="65.57" x2="52.35" y2="52.54"/><polygon class="cls-1" points="37.62 46.29 7.19 59.34 7.19 91.92 37.62 105 68.04 91.92 68.04 59.33 37.62 46.29"/><line class="cls-1" x1="37.62" y1="72.37" x2="37.62" y2="105"/><polyline class="cls-1" points="35.44 41.94 35.44 5 102.81 5 102.81 81.06 74.56 81.06"/><line class="cls-1" x1="63.69" y1="87.58" x2="59.35" y2="87.58"/><line class="cls-1" x1="57.17" y1="89.75" x2="52.83" y2="89.75"/><polyline class="cls-2" points="76.73 61.5 81.08 65.85 89.77 54.98"/><polyline class="cls-2" points="76.73 41.94 81.08 46.29 89.77 35.42"/><polyline class="cls-2" points="76.73 22.39 81.08 26.73 89.77 15.87"/><line class="cls-1" x1="50.65" y1="22.38" x2="65.87" y2="22.38"/><line class="cls-1" x1="50.65" y1="31.08" x2="59.35" y2="31.08"/><line class="cls-1" x1="50.65" y1="39.77" x2="65.87" y2="39.77"/></svg>