<svg id="retail" xmlns="http://www.w3.org/2000/svg" viewBox="0 0 110 110"><defs><style>.cls-1,.cls-2{fill:none;stroke-linejoin:round;stroke-width:3px;}.cls-1{stroke:#e7343f;}.cls-2{stroke:#50575d;}</style></defs><path class="cls-1" d="M74.56,44.14V41.48c0-6.87-13.06-10.42-19.56-10.42S35.44,34.61,35.44,41.48v2.66"/><path class="cls-2" d="M24.57,57.18v13H35.4a8.72,8.72,0,0,1,8.2,5.84L50.25,105H40.61L33.67,83.26H19.77A10.42,10.42,0,0,1,9.35,72.84V46.74a7,7,0,0,1,7-7h.33a15.21,15.21,0,0,1,11.13,4.84l7.64,8.2H48.48s-.75,8.7-8.7,8.7H28.46L17.83,50.67"/><path class="cls-2" d="M22.4,33.27a8.78,8.78,0,0,1-8.7-8.7V22.4a8.7,8.7,0,1,1,17.39,0v2.17A8.78,8.78,0,0,1,22.4,33.27Z"/><path class="cls-2" d="M85.43,57.18v13H74.19A8.69,8.69,0,0,0,66,76.06L59.35,105H69l7-21.74H89.82c5.76,0,10.83-4.66,10.83-10.42V46.74c0-3.84-3.52-7-7.36-7H93a15.18,15.18,0,0,0-11.13,4.84l-7.65,8.2H61.52s.75,8.7,8.7,8.7H81.14L92,50.67"/><path class="cls-2" d="M87.6,33.27a8.78,8.78,0,0,0,8.7-8.7V22.4a8.7,8.7,0,1,0-17.39,0v2.17A8.78,8.78,0,0,0,87.6,33.27Z"/><line class="cls-2" x1="24.57" y1="61.53" x2="85.43" y2="61.53"/><path class="cls-1" d="M55,24.57a8.77,8.77,0,0,1-8.69-8.69V13.71a8.69,8.69,0,1,1,17.38,0v2.17A8.77,8.77,0,0,1,55,24.57Z"/></svg>