<svg id="retail" xmlns="http://www.w3.org/2000/svg" viewBox="0 0 110 110"><defs><style>.cls-1,.cls-2{fill:none;stroke-linejoin:round;stroke-width:3px;}.cls-1{stroke:#e7343f;}.cls-2{stroke:#50575d;}</style></defs><path class="cls-1" d="M36.43,32l8.32,18.25L63.83,52a1.48,1.48,0,0,1,.91,2.52l-14,13.89L54.24,86.5a1.48,1.48,0,0,1-2.12,1.6l-17-8.55L18.05,88a1.48,1.48,0,0,1-2.11-1.6l3.51-18-14-13.91A1.48,1.48,0,0,1,6.35,52l19.07-1.7L33.75,32A1.47,1.47,0,0,1,36.43,32Z"/><path class="cls-2" d="M51.62,43.71l6.89-15.12a1.23,1.23,0,0,1,2.23,0l6.89,15.12,15.81,1.41a1.23,1.23,0,0,1,.75,2.09L72.58,58.72l2.91,15a1.22,1.22,0,0,1-1.75,1.32L59.63,68"/><path class="cls-2" d="M72.07,37.58,79,22.46a1.22,1.22,0,0,1,2.23,0l6.89,15.12L103.88,39a1.22,1.22,0,0,1,.76,2.08L93,52.58l2.91,15a1.23,1.23,0,0,1-1.75,1.33L80.07,61.83"/></svg>